<?xml version="1.0" standalone="no"?>
<!DOCTYPE svg PUBLIC "-//W3C//DTD SVG 20010904//EN"
 "http://www.w3.org/TR/2001/REC-SVG-20010904/DTD/svg10.dtd">
<svg version="1.0" xmlns="http://www.w3.org/2000/svg"
 width="300.000000pt" height="300.000000pt" viewBox="0 0 300.000000 300.000000"
 preserveAspectRatio="xMidYMid meet">
<metadata>
Created by potrace 1.11, written by Peter Selinger 2001-2013
</metadata>
<g transform="translate(0.000000,300.000000) scale(0.100000,-0.100000)"
fill="#000000" stroke="none">
<path d="M1305 2890 c-98 -16 -121 -21 -192 -41 -143 -39 -305 -117 -431 -206
-92 -65 -266 -242 -330 -334 -54 -81 -142 -245 -142 -267 0 -7 -5 -10 -12 -6
-7 4 -8 3 -4 -5 4 -6 2 -18 -4 -26 -7 -8 -10 -15 -7 -15 4 0 -1 -19 -9 -42 -9
-24 -18 -54 -20 -68 -3 -13 -8 -27 -12 -30 -4 -3 -8 -16 -8 -30 -3 -59 -4 -61
-16 -54 -10 5 -10 4 -1 -6 13 -14 6 -43 -9 -34 -5 3 -4 -4 4 -15 11 -18 11
-23 -1 -30 -11 -7 -11 -9 0 -14 9 -4 10 -6 2 -6 -7 -1 -10 -8 -7 -16 4 -9 0
-15 -7 -15 -9 0 -10 -3 -4 -8 12 -9 19 -55 7 -48 -5 3 -9 -1 -9 -9 0 -8 3 -15
6 -15 3 0 7 -22 8 -49 1 -40 -1 -49 -13 -44 -7 3 -11 10 -7 16 4 6 1 7 -7 2
-11 -7 -9 -12 8 -23 21 -14 32 -40 12 -27 -5 3 -10 1 -10 -4 0 -6 4 -11 9 -11
6 0 10 -8 10 -17 -1 -10 2 -36 5 -58 3 -22 4 -34 0 -27 -3 6 -10 10 -15 6 -11
-6 -12 -24 -1 -23 18 3 32 -2 32 -12 0 -5 -4 -7 -10 -4 -5 3 -10 1 -10 -4 0
-6 5 -11 11 -11 5 0 8 -4 4 -9 -3 -5 -1 -12 4 -15 12 -8 8 -36 -8 -45 -10 -6
-9 -10 4 -14 9 -4 13 -3 10 3 -3 6 -1 10 4 10 14 0 14 -13 -1 -28 -9 -9 -8
-12 7 -13 12 0 15 -3 7 -6 -10 -4 -10 -9 3 -23 16 -18 10 -54 -8 -43 -6 3 -7
1 -3 -6 6 -9 11 -9 21 -1 11 9 12 6 8 -12 -3 -13 -11 -29 -16 -36 -8 -10 -7
-12 3 -10 8 2 14 -5 14 -17 0 -20 13 -35 31 -35 6 0 4 4 -4 9 -8 5 -10 14 -6
21 5 8 4 11 -3 6 -7 -4 -10 1 -7 14 2 11 0 18 -5 15 -6 -3 -7 1 -4 10 7 17 14
15 18 -7 1 -7 5 -19 9 -25 5 -7 5 -13 1 -13 -4 0 0 -8 9 -18 21 -23 13 -32
-21 -26 -15 3 -24 3 -21 -1 4 -3 17 -8 29 -10 32 -6 54 -43 53 -87 -1 -21 3
-38 7 -38 5 0 7 9 5 20 -2 11 1 20 6 20 5 0 9 -8 7 -17 -2 -11 2 -17 10 -15 8
1 11 -2 7 -8 -3 -5 0 -10 7 -10 8 0 9 -3 3 -8 -5 -4 -16 -15 -24 -25 -12 -16
-12 -18 0 -15 8 2 13 -3 11 -10 -1 -8 2 -11 8 -7 5 3 10 1 10 -5 0 -6 5 -8 10
-5 6 4 1 14 -11 24 -19 15 -20 19 -6 24 12 4 14 2 10 -10 -4 -11 -2 -14 5 -9
12 7 16 -5 13 -33 -2 -7 2 -10 9 -6 9 6 9 2 0 -15 -11 -21 -7 -35 11 -35 5 0
8 -4 7 -10 -2 -5 -7 -9 -11 -7 -5 1 -6 -2 -2 -8 5 -8 11 -8 21 1 7 6 11 15 8
20 -3 5 0 9 5 9 6 0 11 -5 11 -11 0 -5 5 -7 12 -3 7 4 8 3 4 -5 -4 -6 -11 -9
-16 -6 -13 8 -21 -25 -10 -43 9 -14 10 -12 4 8 -3 14 -3 22 1 18 5 -4 15 -2
24 4 13 10 14 10 4 -1 -14 -16 -6 -44 11 -34 6 4 5 -1 -3 -10 -7 -9 -9 -17 -3
-17 5 0 15 6 21 14 10 11 8 17 -6 25 -10 6 -13 11 -8 11 25 0 34 -22 18 -46
-11 -17 -12 -24 -3 -24 10 0 10 -3 1 -14 -9 -11 -9 -16 0 -22 7 -4 9 -3 5 4
-3 6 -2 13 3 17 6 3 7 13 4 22 -5 12 0 10 15 -5 12 -12 27 -23 32 -23 6 -1 14
-2 19 -3 5 0 13 -4 17 -8 3 -4 -2 -6 -13 -4 -26 5 -25 -34 1 -60 16 -15 19
-16 14 -2 -8 19 12 30 32 18 8 -5 14 -18 15 -29 1 -11 -1 -18 -5 -16 -3 2 -12
-1 -20 -7 -12 -8 -12 -9 2 -4 10 3 20 1 23 -5 4 -5 10 -7 15 -4 7 4 21 -19 21
-35 1 -14 22 -28 36 -23 12 5 14 3 8 -7 -5 -9 -4 -11 4 -6 7 4 14 -2 19 -15
l9 -23 5 22 c4 14 2 20 -4 15 -7 -4 -8 -1 -3 7 6 9 4 11 -5 5 -9 -6 -11 -4 -5
5 5 8 4 11 -3 6 -6 -3 -14 -1 -18 5 -5 8 -9 8 -14 -1 -5 -9 -9 -9 -14 -1 -4 6
-2 11 5 11 7 0 4 7 -7 15 -13 11 -14 14 -4 13 8 -2 21 -11 28 -21 7 -9 17 -15
22 -12 5 3 12 0 15 -6 4 -6 17 -14 29 -19 13 -6 15 -9 6 -9 -9 -1 -16 -11 -17
-23 0 -13 1 -17 4 -10 7 17 50 15 57 -4 4 -10 2 -13 -7 -7 -16 10 -41 14 -32
5 4 -4 10 -7 13 -8 21 -3 41 -17 36 -26 -4 -6 3 -5 15 1 11 7 21 17 21 23 0 6
3 9 6 6 3 -4 1 -15 -5 -26 -12 -23 3 -43 27 -35 11 5 13 3 7 -8 -4 -8 -4 -11
0 -6 5 4 17 -1 28 -10 11 -10 17 -12 13 -5 -4 6 -3 12 3 12 5 0 12 -6 14 -12
4 -10 6 -10 6 -1 1 10 -31 34 -49 37 -3 1 -4 5 -2 10 2 5 -4 6 -12 3 -16 -6
-30 6 -19 17 4 3 17 -1 29 -9 12 -8 24 -11 27 -7 2 4 2 2 1 -5 -2 -7 6 -15 17
-18 15 -5 20 -13 17 -29 -3 -17 0 -22 14 -21 9 1 21 5 25 9 5 4 2 6 -6 4 -8
-2 -14 6 -15 17 -2 16 4 21 20 21 13 0 20 -4 18 -8 -3 -5 -10 -6 -15 -3 -5 4
-9 1 -9 -5 0 -6 7 -13 15 -16 11 -5 12 -10 5 -18 -7 -9 -4 -12 13 -12 15 1 21
-4 19 -14 -2 -8 0 -12 3 -8 4 4 20 1 36 -8 23 -12 28 -12 23 0 -3 8 3 16 16
19 17 4 19 3 9 -9 -13 -16 -1 -18 21 -4 9 5 19 5 27 -2 9 -7 20 -6 39 7 17 11
24 12 18 4 -5 -8 -9 -20 -9 -28 0 -8 -7 -17 -15 -19 -13 -5 -13 -3 -1 11 9 11
10 17 2 17 -6 0 -11 -5 -11 -11 0 -8 -4 -9 -13 0 -8 6 -18 7 -22 3 -5 -4 -5
-1 -1 6 10 16 1 15 -13 -2 -9 -11 -7 -13 11 -12 13 0 22 -4 21 -10 -2 -13 28
-15 44 -2 7 5 14 5 18 -2 3 -5 12 -10 18 -10 7 0 3 7 -7 15 -11 8 -14 15 -8
15 7 0 12 5 12 11 0 5 -5 7 -12 3 -7 -4 -8 -3 -4 5 10 16 29 3 22 -15 -4 -10
0 -14 12 -12 9 2 19 6 22 10 3 4 11 -1 17 -11 9 -14 8 -18 -3 -18 -7 0 -11 3
-9 7 2 4 -2 7 -10 7 -17 0 -21 -16 -5 -18 13 -2 29 -6 35 -9 3 -1 13 -3 23 -4
11 0 27 -7 36 -15 15 -12 17 -12 14 0 -2 9 5 14 20 13 12 -1 22 3 22 8 0 6 -6
8 -14 5 -7 -3 -19 0 -26 6 -8 7 -11 8 -7 1 13 -23 -44 -8 -60 16 l-18 25 29
-23 c22 -17 32 -19 42 -11 8 6 14 8 14 4 0 -4 8 1 18 12 9 10 13 13 8 6 -12
-19 0 -28 18 -14 10 8 16 9 21 1 3 -6 11 -8 16 -4 5 3 7 9 4 14 -3 5 -1 11 4
14 10 7 9 -13 -1 -29 -3 -6 5 -15 18 -22 25 -12 31 -5 14 15 -6 6 -7 10 -4 7
4 -3 13 3 20 13 10 14 15 15 26 4 11 -11 10 -12 -6 -6 -14 5 -17 3 -14 -7 7
-20 30 -18 51 5 9 10 17 15 17 10 0 -6 -5 -15 -12 -22 -14 -14 -20 -44 -7 -36
15 9 39 61 31 69 -4 5 -2 5 5 1 6 -3 11 -15 10 -26 -1 -10 -5 -16 -9 -14 -4 3
-8 1 -8 -4 0 -6 7 -13 16 -16 8 -3 12 -2 9 4 -3 6 1 10 10 10 12 0 15 -5 11
-18 -5 -15 -5 -15 8 1 19 25 21 25 47 2 12 -11 20 -15 16 -9 -9 15 29 49 38
35 3 -6 2 -11 -3 -11 -5 0 -9 -7 -9 -16 0 -15 1 -15 12 0 7 8 15 12 19 8 4 -4
6 0 4 8 -2 9 6 16 20 18 20 3 27 -6 23 -31 -1 -5 3 -5 9 -2 15 9 -14 51 -32
47 -33 -9 -50 -11 -44 -5 3 3 1 12 -5 19 -7 8 -7 14 1 19 6 4 9 1 8 -6 -2 -8
11 -13 36 -15 21 -1 43 -8 47 -16 7 -10 9 -10 9 0 0 7 13 12 30 12 17 0 30 4
30 10 0 5 -7 7 -15 4 -9 -4 -15 0 -15 10 0 19 11 21 28 3 7 -6 23 -12 35 -13
12 -1 31 -5 42 -9 11 -4 7 2 -10 12 -16 11 -31 16 -33 11 -2 -4 -8 -8 -13 -8
-5 0 -4 9 3 20 11 16 14 17 21 5 4 -8 13 -15 19 -15 9 0 9 3 0 12 -14 14 -16
38 -2 38 5 0 6 -8 3 -17 -6 -15 -4 -16 9 -6 8 7 18 10 21 6 4 -3 7 -1 7 5 0 7
5 12 11 12 5 0 7 -4 4 -10 -3 -5 1 -10 10 -10 12 0 15 6 10 23 -5 19 -4 20 5
4 6 -9 9 -21 5 -26 -3 -5 0 -13 6 -17 8 -4 9 -3 5 4 -7 11 6 17 27 13 5 -1 6
3 2 9 -3 5 -2 10 4 10 5 0 12 -6 15 -12 3 -7 3 -2 -1 12 -5 22 -4 23 11 11 9
-8 19 -11 23 -7 3 3 1 6 -6 6 -7 0 -11 6 -8 13 2 6 0 21 -5 32 -9 19 -9 19 6
1 9 -10 13 -24 9 -29 -4 -6 0 -8 9 -4 9 3 21 0 27 -6 6 -6 11 -8 11 -4 0 3 -9
14 -19 24 -17 16 -18 20 -5 37 8 11 14 15 14 10 0 -6 -6 -16 -12 -23 -11 -11
-10 -13 5 -8 9 4 17 2 17 -3 0 -6 5 -10 10 -10 7 0 6 8 -1 23 -10 19 -10 20 2
11 21 -18 62 -12 65 9 1 9 -2 15 -6 12 -5 -3 -11 -1 -14 4 -13 21 14 20 28 -1
9 -12 16 -17 16 -10 0 8 5 10 12 6 7 -4 8 -3 4 5 -4 6 -13 8 -19 5 -8 -5 -9
-4 -2 4 6 6 25 12 42 14 17 1 30 5 28 9 -3 3 2 15 10 25 8 10 14 24 15 29 0 6
-10 -5 -21 -22 -21 -33 -39 -43 -39 -22 0 5 5 7 12 3 8 -5 9 -2 5 10 -4 10 -3
15 3 11 12 -7 32 29 22 41 -4 5 2 1 14 -9 26 -21 32 -15 28 26 -3 22 -1 28 5
17 6 -8 8 -17 5 -21 -2 -4 1 -11 7 -15 8 -5 9 -3 4 6 -6 10 -4 12 8 7 9 -3 16
-3 16 1 -3 20 2 25 12 12 8 -12 9 -10 4 9 -5 17 -4 22 5 16 8 -5 11 -4 6 3 -7
11 -37 5 -33 -6 1 -4 -2 -8 -8 -10 -5 -2 -11 1 -13 6 -2 6 6 13 18 17 11 3 17
11 14 17 -4 6 1 6 14 -1 14 -7 23 -8 27 -1 4 6 9 9 13 7 4 -2 15 4 25 15 9 10
12 18 6 18 -5 0 -7 5 -4 10 4 6 10 8 15 5 4 -3 6 5 2 17 -4 16 -2 19 8 13 10
-6 11 -4 4 6 -12 20 -14 40 -3 33 5 -3 7 -10 4 -15 -4 -5 -1 -9 4 -9 6 0 11 7
11 16 0 8 5 12 10 9 6 -4 7 -11 4 -17 -4 -7 -2 -8 4 -4 6 4 8 14 5 23 -4 10
-2 14 5 9 6 -3 13 -2 17 3 3 6 -3 8 -14 6 -11 -2 -22 2 -24 10 -4 9 1 11 14 8
20 -6 52 14 44 27 -3 4 5 11 18 15 13 4 17 8 9 12 -6 2 -10 9 -7 14 4 5 0 7
-7 6 -7 -2 -10 -2 -5 0 4 3 4 10 1 15 -4 7 -2 8 4 4 15 -9 54 12 46 25 -3 6 4
13 16 16 16 4 18 8 8 14 -17 12 -31 11 -23 0 3 -5 1 -12 -5 -16 -6 -4 -7 -11
-4 -17 4 -6 2 -8 -4 -4 -5 3 -13 0 -15 -6 -4 -9 -6 -9 -6 -1 -1 6 6 19 15 27
8 9 12 16 7 16 -4 0 1 7 11 15 11 8 14 15 7 15 -7 0 -9 5 -5 11 4 8 9 7 15 -2
4 -7 6 -16 3 -20 -6 -10 24 -5 33 6 4 4 3 5 -3 2 -7 -4 -15 0 -18 9 -3 8 -2
12 3 9 5 -3 13 -1 16 5 4 6 3 10 -2 9 -4 -1 -15 -1 -23 1 -11 1 -9 4 5 9 11 5
25 4 32 -1 10 -8 11 -4 4 31 -1 2 -7 -2 -15 -8 -10 -8 -16 -9 -21 -1 -4 6 -1
9 7 8 8 -2 12 4 10 15 -2 11 4 17 17 17 11 0 22 9 26 20 3 11 12 20 18 20 7 1
1 7 -13 15 -14 8 -19 14 -12 15 7 0 11 4 8 8 -3 5 1 9 9 9 10 0 12 -4 5 -12
-7 -8 -5 -12 4 -12 17 0 14 26 -4 37 -10 6 -11 12 -3 22 6 7 12 16 12 21 1 4
1 8 2 10 1 5 9 38 12 52 2 8 6 17 9 21 4 3 4 12 2 19 -3 7 -1 16 4 19 5 3 8
-6 6 -19 -1 -14 1 -23 5 -20 7 3 7 45 1 53 -7 7 -5 29 3 39 5 7 6 13 3 13 -4
0 2 10 14 22 11 12 18 24 15 27 -3 2 -12 -4 -20 -15 -14 -18 -15 -18 -8 0 3
10 7 31 9 45 1 14 2 30 3 34 1 5 5 6 10 2 5 -3 13 -1 16 5 4 6 1 9 -6 8 -7 -2
-15 5 -17 16 -2 10 0 16 5 13 5 -4 10 0 10 8 0 8 -4 12 -7 10 -4 -3 -7 7 -7
21 0 19 4 24 16 20 14 -6 14 -5 0 6 -18 15 -22 109 -5 120 8 5 7 8 -1 8 -7 0
-13 7 -13 16 0 8 4 13 8 10 5 -3 9 1 9 9 0 8 -4 12 -9 9 -8 -5 -11 13 -11 79
0 26 -3 34 -9 25 -6 -9 -8 -3 -6 17 1 17 -1 36 -5 43 -5 6 -5 17 -2 22 3 6 2
10 -3 10 -12 0 -44 118 -36 132 4 7 2 8 -4 4 -8 -5 -12 0 -12 13 0 11 -5 23
-10 26 -6 4 -8 10 -5 15 3 5 0 12 -6 15 -5 4 -8 14 -4 23 3 9 3 13 -1 9 -4 -4
-21 21 -38 56 -120 245 -347 473 -601 604 -201 104 -361 143 -600 148 -93 2
-192 0 -220 -5z m1474 -1932 c-11 -21 -15 -22 -25 -6 -5 7 -3 8 6 3 9 -6 12
-4 8 7 -4 8 0 15 7 15 10 0 11 -5 4 -19z m-2414 -258 c-3 -5 -1 -10 5 -10 6 0
8 -5 4 -11 -4 -8 -9 -7 -15 2 -7 12 -9 12 -9 0 0 -8 -3 -11 -6 -8 -4 4 -1 13
6 22 14 17 25 20 15 5z m2265 -5 c-15 -9 -19 -14 -10 -15 13 0 13 -1 0 -10 -8
-5 -19 -10 -25 -10 -5 0 -3 5 5 10 8 5 11 10 6 10 -5 0 -3 7 4 15 7 8 20 15
29 15 11 -1 8 -5 -9 -15z m-100 -115 c0 -5 -2 -10 -4 -10 -3 0 -8 5 -11 10 -3
6 -1 10 4 10 6 0 11 -4 11 -10z m-9 -33 c-6 -8 -8 -16 -6 -19 3 -3 -7 -13 -22
-23 -24 -16 -26 -16 -14 -2 7 9 10 17 5 17 -5 1 2 10 15 20 27 23 39 26 22 7z
m-51 -27 c0 -5 -5 -10 -11 -10 -5 0 -7 5 -4 10 3 6 8 10 11 10 2 0 4 -4 4 -10z
m-1939 -43 c-13 -13 -26 -3 -16 12 3 6 11 8 17 5 6 -4 6 -10 -1 -17z m71 -59
c-8 -8 -9 -4 -5 13 4 13 8 18 11 10 2 -7 -1 -18 -6 -23z m1775 10 c-3 -8 -6
-5 -6 6 -1 11 2 17 5 13 3 -3 4 -12 1 -19z m-67 -48 c0 -5 -5 -10 -11 -10 -5
0 -7 5 -4 10 3 6 8 10 11 10 2 0 4 -4 4 -10z m-38 -27 c-6 -3 -9 -10 -6 -15 4
-7 2 -8 -5 -4 -9 6 -9 11 0 22 6 8 15 12 18 8 3 -4 0 -9 -7 -11z m-51 -27
c-10 -11 -7 -18 11 -30 21 -15 21 -16 3 -13 -11 2 -28 7 -37 12 -16 6 -16 9 5
26 26 22 34 24 18 5z m-1434 -18 c-3 -8 -6 -5 -6 6 -1 11 2 17 5 13 3 -3 4
-12 1 -19z m23 -28 c0 -5 -2 -10 -4 -10 -3 0 -8 5 -11 10 -3 6 -1 10 4 10 6 0
11 -4 11 -10z m117 -35 c0 -8 -4 -12 -9 -9 -5 3 -6 10 -3 15 9 13 12 11 12 -6z
m1136 -12 c-3 -7 -6 -13 -8 -13 -2 0 -5 6 -8 13 -3 8 1 14 8 14 7 0 11 -6 8
-14z m13 -21 c-18 -16 -18 -16 -6 6 6 13 14 21 18 18 3 -4 -2 -14 -12 -24z
m-1059 -13 c-1 -4 3 -6 8 -5 6 0 9 5 7 9 -1 5 2 6 8 2 6 -3 8 -10 5 -15 -3 -4
2 -13 10 -20 20 -17 9 -33 -14 -20 -27 14 -53 57 -36 57 8 0 13 -4 12 -8z
m900 0 c-9 -6 -14 -15 -11 -21 4 -7 2 -8 -5 -4 -14 9 3 36 23 36 6 0 3 -5 -7
-11z m-836 -26 c13 -16 12 -17 -3 -4 -10 7 -18 15 -18 17 0 8 8 3 21 -13z m45
-2 c1 -6 0 -7 -3 -1 -2 5 -9 8 -13 5 -5 -3 -11 -1 -14 4 -4 5 2 8 11 7 9 -2
18 -8 19 -15z m744 15 c0 -3 -4 -8 -10 -11 -5 -3 -10 -1 -10 4 0 6 5 11 10 11
6 0 10 -2 10 -4z m-700 -30 c-7 -7 -13 -7 -20 0 -6 6 -3 10 10 10 13 0 16 -4
10 -10z m635 5 c-9 -8 -36 -10 -30 -2 2 4 11 8 20 8 8 0 13 -3 10 -6z m45 -15
c-10 -13 -40 -12 -40 1 0 3 7 3 15 0 8 -4 17 -2 20 3 4 6 9 10 12 10 3 0 0 -6
-7 -14z m-580 0 c0 -3 -4 -8 -10 -11 -5 -3 -10 -1 -10 4 0 6 5 11 10 11 6 0
10 -2 10 -4z m80 -26 c0 -5 -4 -10 -10 -10 -5 0 -10 5 -10 10 0 6 5 10 10 10
6 0 10 -4 10 -10z m297 -9 c0 -11 -7 -17 -14 -14 -9 4 -9 8 0 19 16 17 16 17
14 -5z m44 10 c0 10 2 11 6 2 2 -7 9 -13 14 -13 6 0 7 5 4 10 -3 6 -1 10 4 10
17 0 13 -15 -8 -34 -17 -16 -19 -16 -25 1 -6 15 -8 15 -16 3 -7 -11 -9 -10 -7
7 1 17 4 19 14 11 10 -8 13 -7 14 3z"/>
<path d="M1030 171 c0 -5 7 -12 16 -15 14 -5 15 -4 4 9 -14 17 -20 19 -20 6z"/>
<path d="M75 1351 c-3 -5 -2 -12 3 -15 5 -3 9 1 9 9 0 17 -3 19 -12 6z"/>
<path d="M2853 1225 c0 -7 6 -11 14 -8 7 3 13 6 13 8 0 2 -6 5 -13 8 -8 3 -14
-1 -14 -8z"/>
<path d="M100 1225 c0 -2 6 -8 13 -14 10 -8 14 -7 14 2 0 8 -6 14 -14 14 -7 0
-13 -1 -13 -2z"/>
<path d="M2834 1136 c1 -8 5 -18 8 -22 4 -3 5 1 4 10 -1 8 -5 18 -8 22 -4 3
-5 -1 -4 -10z"/>
<path d="M140 1099 c0 -5 5 -7 10 -4 6 3 10 8 10 11 0 2 -4 4 -10 4 -5 0 -10
-5 -10 -11z"/>
<path d="M2822 1105 c4 -4 3 -14 -3 -22 -6 -7 -8 -13 -4 -13 4 0 1 -8 -6 -17
-10 -11 -10 -14 -1 -9 7 4 12 2 12 -6 0 -9 3 -9 10 2 6 9 6 18 0 24 -6 6 -6
14 1 22 7 8 6 14 -3 20 -7 4 -10 4 -6 -1z"/>
<path d="M200 909 c-13 -9 -13 -10 0 -6 8 2 24 -3 35 -12 20 -16 20 -16 1 7
-11 12 -20 22 -20 22 -1 0 -8 -5 -16 -11z"/>
<path d="M2750 916 c0 -2 7 -7 16 -10 8 -3 12 -2 9 4 -6 10 -25 14 -25 6z"/>
<path d="M216 877 c3 -10 9 -15 12 -12 3 3 0 11 -7 18 -10 9 -11 8 -5 -6z"/>
<path d="M267 789 c-4 -16 -3 -18 9 -8 7 6 11 15 8 20 -8 13 -11 11 -17 -12z"/>
<path d="M310 699 c0 -5 5 -7 10 -4 6 3 10 8 10 11 0 2 -4 4 -10 4 -5 0 -10
-5 -10 -11z"/>
<path d="M2571 564 c0 -11 3 -14 6 -6 3 7 2 16 -1 19 -3 4 -6 -2 -5 -13z"/>
<path d="M472 508 c7 -20 13 -26 18 -17 10 15 3 36 -15 43 -11 4 -11 -1 -3
-26z"/>
<path d="M553 449 c2 -22 13 -25 20 -5 3 8 0 17 -8 20 -9 3 -13 -2 -12 -15z"/>
<path d="M590 380 c0 -5 5 -10 11 -10 5 0 7 5 4 10 -3 6 -8 10 -11 10 -2 0 -4
-4 -4 -10z"/>
<path d="M750 260 c0 -5 5 -10 11 -10 5 0 7 5 4 10 -3 6 -8 10 -11 10 -2 0 -4
-4 -4 -10z"/>
<path d="M1976 182 c-2 -4 -1 -14 5 -22 7 -12 9 -10 9 8 0 23 -5 28 -14 14z"/>
<path d="M2005 168 c3 -12 10 -26 16 -32 8 -7 7 -3 -1 13 -11 21 -10 23 4 18
22 -9 20 0 -3 13 -17 9 -19 7 -16 -12z"/>
<path d="M1905 120 c-3 -6 1 -7 9 -4 18 7 21 14 7 14 -6 0 -13 -4 -16 -10z"/>
<path d="M1417 103 c-9 -14 6 -28 32 -31 14 -1 23 -1 20 0 -2 2 -14 11 -26 21
-11 10 -23 14 -26 10z"/>
<path d="M1510 82 c11 -22 31 -22 29 1 0 8 -2 8 -6 -1 -4 -10 -9 -9 -20 5 -13
17 -13 16 -3 -5z"/>
</g>
</svg>
